<svg width="24" height="24" viewBox="0 0 24 24" fill="none" xmlns="http://www.w3.org/2000/svg">
<path d="M21.593 7.20273C21.4791 6.78013 21.2565 6.39473 20.9474 6.08489C20.6382 5.77505 20.2533 5.55158 19.831 5.43671C18.265 5.00671 11.9999 4.99971 11.9999 4.99971C11.9999 4.99971 5.73588 4.99271 4.16887 5.40371C3.74679 5.52386 3.36268 5.75049 3.05343 6.06185C2.74417 6.37321 2.52014 6.75885 2.40285 7.18173C1.98985 8.74774 1.98585 11.9958 1.98585 11.9958C1.98585 11.9958 1.98185 15.2598 2.39185 16.8098C2.62186 17.6668 3.29686 18.3438 4.15487 18.5748C5.73688 19.0048 11.9849 19.0118 11.9849 19.0118C11.9849 19.0118 18.25 19.0188 19.816 18.6088C20.2385 18.4942 20.6238 18.2712 20.9337 17.962C21.2436 17.6528 21.4674 17.2681 21.583 16.8458C21.997 15.2808 22 12.0338 22 12.0338C22 12.0338 22.02 8.76874 21.593 7.20273ZM9.99592 15.0048L10.0009 9.00475L15.208 12.0098L9.99592 15.0048Z" fill="black"/>
</svg>
