<svg width="24" height="24" viewBox="0 0 24 24" fill="none" xmlns="http://www.w3.org/2000/svg">
<path fill-rule="evenodd" clip-rule="evenodd" d="M16.0002 3.24264H8.00017C5.23873 3.24264 3.00013 5.48124 3.00013 8.24268V16.2427C3.00013 19.0042 5.23873 21.2428 8.00017 21.2428H16.0002C18.7617 21.2428 21.0003 19.0042 21.0003 16.2427V8.24268C21.0003 5.48124 18.7617 3.24264 16.0002 3.24264ZM19.2503 16.2427C19.2448 18.0354 17.7929 19.4873 16.0002 19.4928H8.00017C6.2075 19.4873 4.75563 18.0354 4.75014 16.2427V8.24268C4.75563 6.45002 6.2075 4.99814 8.00017 4.99265H16.0002C17.7929 4.99814 19.2448 6.45002 19.2503 8.24268V16.2427ZM16.7502 8.49268C17.3025 8.49268 17.7503 8.04496 17.7503 7.49267C17.7503 6.94039 17.3025 6.49267 16.7502 6.49267C16.1979 6.49267 15.7502 6.94039 15.7502 7.49267C15.7502 8.04496 16.1979 8.49268 16.7502 8.49268ZM12.0002 7.74268C9.5149 7.74268 7.50017 9.75741 7.50017 12.2427C7.50017 14.728 9.5149 16.7428 12.0002 16.7428C14.4855 16.7428 16.5002 14.728 16.5002 12.2427C16.5029 11.0484 16.0296 9.90226 15.1851 9.05777C14.3406 8.21327 13.1945 7.74002 12.0002 7.74268ZM9.25018 12.2427C9.25018 13.7615 10.4814 14.9927 12.0002 14.9927C13.519 14.9927 14.7502 13.7615 14.7502 12.2427C14.7502 10.7239 13.519 9.49269 12.0002 9.49269C10.4814 9.49269 9.25018 10.7239 9.25018 12.2427Z" fill="black"/>
</svg>
