<svg width="1320" height="56" viewBox="0 0 1320 56" fill="none" xmlns="http://www.w3.org/2000/svg">
<path d="M79.6147 37.0475H83.7734V29.9184H85.5815L89.9984 37.0475H94.4411L89.5593 29.1952C91.729 28.5495 93.3563 27.0771 93.3563 24.2875V24.1842C93.3563 20.3614 90.5925 18.5791 86.2272 18.5791H79.6147V37.0475ZM83.7734 27.0771V21.782H86.1239C88.1386 21.782 89.2752 22.4278 89.2752 24.3133V24.4167C89.2752 26.199 88.2162 27.0771 86.1239 27.0771H83.7734Z" fill="black"/>
<path d="M101.579 37.3316C105.273 37.3316 107.598 35.7044 108.037 32.7855H104.498C104.266 33.9221 103.413 34.6712 101.683 34.6712C99.6422 34.6712 98.4282 33.3797 98.3249 31.1325H108.063V30.0993C108.063 25.269 104.963 23.2285 101.476 23.2285C97.55 23.2285 94.5278 25.9923 94.5278 30.2542V30.4608C94.5278 34.7745 97.4983 37.3316 101.579 37.3316ZM98.3765 28.8336C98.6606 26.9222 99.7972 25.8115 101.476 25.8115C103.258 25.8115 104.292 26.793 104.421 28.8336H98.3765Z" fill="black"/>
<path d="M109.843 37.0477H113.562V17.417H109.843V37.0477Z" fill="black"/>
<path d="M120.698 37.3312C122.92 37.3312 124.288 36.298 124.986 34.9291V37.0471H128.705V23.5381H124.986V31.4679C124.986 33.4568 123.746 34.4383 122.171 34.4383C120.57 34.4383 119.82 33.5601 119.82 31.7262V23.5381H116.101V32.2428C116.101 35.7814 118.064 37.3312 120.698 37.3312Z" fill="black"/>
<path d="M131.245 37.0475H134.991V29.0661C134.991 27.2322 136.153 26.3022 137.599 26.3022C138.917 26.3022 139.717 27.0771 139.717 28.8078V37.0475H143.437V29.0661C143.437 27.2322 144.599 26.3022 146.045 26.3022C147.388 26.3022 148.164 27.0771 148.164 28.8078V37.0475H151.883V28.3945C151.883 24.8041 149.946 23.2285 147.44 23.2285C145.736 23.2285 143.979 23.9517 142.894 25.579C142.249 23.9776 140.906 23.2285 139.123 23.2285C137.108 23.2285 135.662 24.3392 134.991 25.6048V23.5384H131.245V37.0475Z" fill="black"/>
<path d="M160.532 37.3316C164.226 37.3316 166.551 35.7044 166.989 32.7855H163.451C163.218 33.9221 162.366 34.6712 160.635 34.6712C158.594 34.6712 157.381 33.3797 157.277 31.1325H167.015V30.0993C167.015 25.269 163.915 23.2285 160.428 23.2285C156.502 23.2285 153.48 25.9923 153.48 30.2542V30.4608C153.48 34.7745 156.451 37.3316 160.532 37.3316ZM157.329 28.8336C157.613 26.9222 158.75 25.8115 160.428 25.8115C162.211 25.8115 163.244 26.793 163.374 28.8336H157.329Z" fill="black"/>
<path fill-rule="evenodd" clip-rule="evenodd" d="M65.303 19.684L65.0519 19.2356C64.728 18.6932 64.2712 18.2425 63.7246 17.9261L51.6885 10.9843C51.1435 10.6682 50.5249 10.5011 49.8948 10.5H49.3746C48.7445 10.5011 48.1259 10.6682 47.5808 10.9843L35.5449 17.9441C35.0013 18.2584 34.5498 18.7099 34.2354 19.2535L33.9843 19.7019C33.6682 20.2469 33.5011 20.8656 33.5 21.4956V35.3972C33.5011 36.0273 33.6682 36.6459 33.9843 37.1909L34.2354 37.6394C34.5579 38.1766 35.0076 38.6263 35.5449 38.9488L47.5988 45.8905C48.1411 46.2132 48.7616 46.3808 49.3925 46.3748H49.8948C50.5249 46.3737 51.1435 46.2067 51.6885 45.8905L63.7246 38.9309C64.2735 38.6236 64.7267 38.1704 65.0339 37.6214L65.303 37.173C65.6154 36.6264 65.7822 36.0087 65.7873 35.3792V21.4777C65.7863 20.8477 65.6192 20.229 65.303 19.684ZM49.3746 14.0874H49.8948L60.4062 20.1503L49.6437 26.3566L38.8812 20.1503L49.3746 14.0874ZM51.4374 41.8906L61.9308 35.8277L62.1998 35.3793V23.2536L51.4374 29.4779V41.8906Z" fill="black"/>
<path d="M303.804 24.9536C303.804 22.9064 301.819 20.7347 298.377 20.7347C294.511 20.7347 290.27 23.5652 289.613 29.2212C288.951 34.9395 292.511 37.4663 296.088 37.4663C299.664 37.4663 301.547 36.0729 303.458 34.2051C301.808 32.1261 299.679 33.0936 299.276 33.2962C298.831 33.5194 298.246 33.8281 297.059 33.8281C295.673 33.8281 294.268 33.201 294.268 30.6279C303.128 29.7788 303.804 27.002 303.804 24.9536ZM299.413 25.2964C299.355 25.9271 299.097 27.0191 294.613 27.6194C295.559 24.2618 297.362 24.0129 298.195 24.0129C298.976 24.0129 299.474 24.618 299.413 25.2964ZM284.406 25.8417C284.406 25.8417 282.501 31.8175 282.353 32.3189C282.302 31.8175 280.907 21.0836 280.907 21.0836C277.662 21.0836 275.926 23.3895 275.011 25.8393C275.011 25.8393 272.693 31.8321 272.505 32.3336C272.494 31.8638 272.149 25.9016 272.149 25.9016C271.952 22.9051 269.217 21.0909 267 21.0909L269.666 37.3528C273.071 37.3418 274.894 35.0396 275.855 32.5947C275.855 32.5947 277.894 27.307 277.978 27.0667C277.999 27.2961 279.444 37.3528 279.444 37.3528C282.852 37.3528 284.69 35.197 285.68 32.8399L290.461 21.0909C287.094 21.0909 285.321 23.3907 284.406 25.8417ZM316.319 20.7127C314.224 20.7127 312.61 21.851 311.251 23.5334L311.253 23.5212L312.461 13.75C309.672 13.75 307.393 16.1779 306.96 19.7794L304.838 37.2259C306.447 37.2259 308.152 36.7586 309.072 35.5764C309.895 36.6341 311.119 37.4772 312.931 37.4772C317.634 37.4772 320.867 32.0103 320.867 26.8776C320.867 22.1939 318.588 20.7127 316.319 20.7127ZM315.887 29.0944C315.399 31.9639 313.804 33.8988 312.26 33.8988C310.703 33.8988 310.045 33.2108 310.045 33.2108C310.336 30.7024 310.528 29.1639 311.096 27.839C311.662 26.514 313 24.3997 314.401 24.3997C315.762 24.3997 316.375 26.2261 315.887 29.0944ZM332.657 21.0922H329.365L329.38 20.9201C329.605 18.7704 330.12 17.6419 331.786 17.4687C332.925 17.3516 333.439 16.7598 333.559 16.1205C333.653 15.6191 333.971 13.8464 333.971 13.8464C327.366 13.8086 325.296 16.6598 324.767 20.9934L324.755 21.0909L324.691 21.0934C323.618 21.0934 322.441 22.3074 322.235 23.8494L322.163 24.4167H324.359L322.515 39.6782L321.956 42.4208L322.183 42.4281C325.266 42.311 327.25 39.8795 327.688 36.3389L329.128 24.4167H330.16C331.17 24.4167 332.357 23.4042 332.577 21.7119L332.657 21.0922ZM349.745 20.8092C345.951 20.8092 342.375 23.6018 341.275 27.9951C340.177 32.3873 341.847 37.5736 347.423 37.5736C353.002 37.5736 356.206 32.1676 356.206 27.6792C356.206 23.1882 353.171 20.8092 349.745 20.8092ZM351.284 28.9638C351.087 30.9561 350.209 33.966 347.808 33.966C345.397 33.966 345.739 30.434 345.973 28.7576C346.223 26.9605 347.233 24.4167 349.382 24.4167C351.323 24.4167 351.506 26.714 351.284 28.9638ZM374.944 25.8417C374.944 25.8417 373.038 31.8175 372.892 32.3189C372.839 31.8175 371.445 21.0836 371.445 21.0836C368.2 21.0836 366.464 23.3895 365.548 25.8393C365.548 25.8393 363.232 31.8321 363.044 32.3336C363.032 31.8638 362.687 25.9016 362.687 25.9016C362.491 22.9051 359.754 21.0909 357.538 21.0909L360.203 37.3528C363.608 37.3418 365.432 35.0396 366.394 32.5947C366.394 32.5947 368.432 27.307 368.516 27.0667C368.537 27.2961 369.982 37.3528 369.982 37.3528C373.39 37.3528 375.228 35.197 376.217 32.8399L381 21.0909C377.632 21.0909 375.859 23.3907 374.944 25.8417ZM335.756 13.8464L332.992 36.1437L332.984 36.1401L332.423 38.8974L332.649 38.9046C335.626 38.868 337.738 36.256 338.135 32.9618L339.732 20.1637C340.216 16.2657 337.893 13.8464 335.756 13.8464Z" fill="black"/>
<path d="M527.615 37.0475H531.773V29.9184H533.581L537.998 37.0475H542.441L537.559 29.1952C539.729 28.5495 541.356 27.0771 541.356 24.2875V24.1842C541.356 20.3614 538.592 18.5791 534.227 18.5791H527.615V37.0475ZM531.773 27.0771V21.782H534.124C536.139 21.782 537.275 22.4278 537.275 24.3133V24.4167C537.275 26.199 536.216 27.0771 534.124 27.0771H531.773Z" fill="black"/>
<path d="M549.579 37.3316C553.273 37.3316 555.598 35.7044 556.037 32.7855H552.498C552.266 33.9221 551.413 34.6712 549.683 34.6712C547.642 34.6712 546.428 33.3797 546.325 31.1325H556.063V30.0993C556.063 25.269 552.963 23.2285 549.476 23.2285C545.55 23.2285 542.528 25.9923 542.528 30.2542V30.4608C542.528 34.7745 545.498 37.3316 549.579 37.3316ZM546.377 28.8336C546.661 26.9222 547.797 25.8115 549.476 25.8115C551.258 25.8115 552.292 26.793 552.421 28.8336H546.377Z" fill="black"/>
<path d="M557.843 37.0477H561.562V17.417H557.843V37.0477Z" fill="black"/>
<path d="M568.698 37.3312C570.92 37.3312 572.288 36.298 572.986 34.9291V37.0471H576.705V23.5381H572.986V31.4679C572.986 33.4568 571.746 34.4383 570.171 34.4383C568.57 34.4383 567.82 33.5601 567.82 31.7262V23.5381H564.101V32.2428C564.101 35.7814 566.064 37.3312 568.698 37.3312Z" fill="black"/>
<path d="M579.245 37.0475H582.991V29.0661C582.991 27.2322 584.153 26.3022 585.599 26.3022C586.917 26.3022 587.717 27.0771 587.717 28.8078V37.0475H591.437V29.0661C591.437 27.2322 592.599 26.3022 594.045 26.3022C595.388 26.3022 596.164 27.0771 596.164 28.8078V37.0475H599.883V28.3945C599.883 24.8041 597.946 23.2285 595.44 23.2285C593.736 23.2285 591.979 23.9517 590.894 25.579C590.249 23.9776 588.906 23.2285 587.123 23.2285C585.108 23.2285 583.662 24.3392 582.991 25.6048V23.5384H579.245V37.0475Z" fill="black"/>
<path d="M608.532 37.3316C612.226 37.3316 614.551 35.7044 614.989 32.7855H611.451C611.218 33.9221 610.366 34.6712 608.635 34.6712C606.594 34.6712 605.381 33.3797 605.277 31.1325H615.015V30.0993C615.015 25.269 611.915 23.2285 608.428 23.2285C604.502 23.2285 601.48 25.9923 601.48 30.2542V30.4608C601.48 34.7745 604.451 37.3316 608.532 37.3316ZM605.329 28.8336C605.613 26.9222 606.75 25.8115 608.428 25.8115C610.211 25.8115 611.244 26.793 611.374 28.8336H605.329Z" fill="black"/>
<path fill-rule="evenodd" clip-rule="evenodd" d="M513.303 19.684L513.052 19.2356C512.728 18.6932 512.271 18.2425 511.725 17.9261L499.689 10.9843C499.143 10.6682 498.525 10.5011 497.895 10.5H497.375C496.745 10.5011 496.126 10.6682 495.581 10.9843L483.545 17.9441C483.001 18.2584 482.55 18.7099 482.235 19.2535L481.984 19.7019C481.668 20.2469 481.501 20.8656 481.5 21.4956V35.3972C481.501 36.0273 481.668 36.6459 481.984 37.1909L482.235 37.6394C482.558 38.1766 483.008 38.6263 483.545 38.9488L495.599 45.8905C496.141 46.2132 496.762 46.3808 497.393 46.3748H497.895C498.525 46.3737 499.143 46.2067 499.689 45.8905L511.725 38.9309C512.273 38.6236 512.727 38.1704 513.034 37.6214L513.303 37.173C513.615 36.6264 513.782 36.0087 513.787 35.3792V21.4777C513.786 20.8477 513.619 20.229 513.303 19.684ZM497.375 14.0874H497.895L508.406 20.1503L497.644 26.3566L486.881 20.1503L497.375 14.0874ZM499.437 41.8906L509.931 35.8277L510.2 35.3793V23.2536L499.437 29.4779V41.8906Z" fill="black"/>
<path d="M751.804 24.9536C751.804 22.9064 749.819 20.7347 746.377 20.7347C742.511 20.7347 738.27 23.5652 737.613 29.2212C736.951 34.9395 740.511 37.4663 744.088 37.4663C747.664 37.4663 749.547 36.0729 751.458 34.2051C749.808 32.1261 747.679 33.0936 747.276 33.2962C746.831 33.5194 746.246 33.8281 745.059 33.8281C743.673 33.8281 742.268 33.201 742.268 30.6279C751.128 29.7788 751.804 27.002 751.804 24.9536ZM747.413 25.2964C747.355 25.9271 747.097 27.0191 742.613 27.6194C743.559 24.2618 745.362 24.0129 746.195 24.0129C746.976 24.0129 747.474 24.618 747.413 25.2964ZM732.406 25.8417C732.406 25.8417 730.501 31.8175 730.353 32.3189C730.302 31.8175 728.907 21.0836 728.907 21.0836C725.662 21.0836 723.926 23.3895 723.011 25.8393C723.011 25.8393 720.693 31.8321 720.505 32.3336C720.494 31.8638 720.149 25.9016 720.149 25.9016C719.952 22.9051 717.217 21.0909 715 21.0909L717.666 37.3528C721.071 37.3418 722.894 35.0396 723.855 32.5947C723.855 32.5947 725.894 27.307 725.978 27.0667C725.999 27.2961 727.444 37.3528 727.444 37.3528C730.852 37.3528 732.69 35.197 733.68 32.8399L738.461 21.0909C735.094 21.0909 733.321 23.3907 732.406 25.8417ZM764.319 20.7127C762.224 20.7127 760.61 21.851 759.251 23.5334L759.253 23.5212L760.461 13.75C757.672 13.75 755.393 16.1779 754.96 19.7794L752.838 37.2259C754.447 37.2259 756.152 36.7586 757.072 35.5764C757.895 36.6341 759.119 37.4772 760.931 37.4772C765.634 37.4772 768.867 32.0103 768.867 26.8776C768.867 22.1939 766.588 20.7127 764.319 20.7127ZM763.887 29.0944C763.399 31.9639 761.804 33.8988 760.26 33.8988C758.703 33.8988 758.045 33.2108 758.045 33.2108C758.336 30.7024 758.528 29.1639 759.096 27.839C759.662 26.514 761 24.3997 762.401 24.3997C763.762 24.3997 764.375 26.2261 763.887 29.0944ZM780.657 21.0922H777.365L777.38 20.9201C777.605 18.7704 778.12 17.6419 779.786 17.4687C780.925 17.3516 781.439 16.7598 781.559 16.1205C781.653 15.6191 781.971 13.8464 781.971 13.8464C775.366 13.8086 773.296 16.6598 772.767 20.9934L772.755 21.0909L772.691 21.0934C771.618 21.0934 770.441 22.3074 770.235 23.8494L770.163 24.4167H772.359L770.515 39.6782L769.956 42.4208L770.183 42.4281C773.266 42.311 775.25 39.8795 775.688 36.3389L777.128 24.4167H778.16C779.17 24.4167 780.357 23.4042 780.577 21.7119L780.657 21.0922ZM797.745 20.8092C793.951 20.8092 790.375 23.6018 789.275 27.9951C788.177 32.3873 789.847 37.5736 795.423 37.5736C801.002 37.5736 804.206 32.1676 804.206 27.6792C804.206 23.1882 801.171 20.8092 797.745 20.8092ZM799.284 28.9638C799.087 30.9561 798.209 33.966 795.808 33.966C793.397 33.966 793.739 30.434 793.973 28.7576C794.223 26.9605 795.233 24.4167 797.382 24.4167C799.323 24.4167 799.506 26.714 799.284 28.9638ZM822.944 25.8417C822.944 25.8417 821.038 31.8175 820.892 32.3189C820.839 31.8175 819.445 21.0836 819.445 21.0836C816.2 21.0836 814.464 23.3895 813.548 25.8393C813.548 25.8393 811.232 31.8321 811.044 32.3336C811.032 31.8638 810.687 25.9016 810.687 25.9016C810.491 22.9051 807.754 21.0909 805.538 21.0909L808.203 37.3528C811.608 37.3418 813.432 35.0396 814.394 32.5947C814.394 32.5947 816.432 27.307 816.516 27.0667C816.537 27.2961 817.982 37.3528 817.982 37.3528C821.39 37.3528 823.228 35.197 824.217 32.8399L829 21.0909C825.632 21.0909 823.859 23.3907 822.944 25.8417ZM783.756 13.8464L780.992 36.1437L780.984 36.1401L780.423 38.8974L780.649 38.9046C783.626 38.868 785.738 36.256 786.135 32.9618L787.732 20.1637C788.216 16.2657 785.893 13.8464 783.756 13.8464Z" fill="black"/>
<path d="M975.615 37.0475H979.773V29.9184H981.581L985.998 37.0475H990.441L985.559 29.1952C987.729 28.5495 989.356 27.0771 989.356 24.2875V24.1842C989.356 20.3614 986.592 18.5791 982.227 18.5791H975.615V37.0475ZM979.773 27.0771V21.782H982.124C984.139 21.782 985.275 22.4278 985.275 24.3133V24.4167C985.275 26.199 984.216 27.0771 982.124 27.0771H979.773Z" fill="black"/>
<path d="M997.579 37.3316C1001.27 37.3316 1003.6 35.7044 1004.04 32.7855H1000.5C1000.27 33.9221 999.413 34.6712 997.683 34.6712C995.642 34.6712 994.428 33.3797 994.325 31.1325H1004.06V30.0993C1004.06 25.269 1000.96 23.2285 997.476 23.2285C993.55 23.2285 990.528 25.9923 990.528 30.2542V30.4608C990.528 34.7745 993.498 37.3316 997.579 37.3316ZM994.377 28.8336C994.661 26.9222 995.797 25.8115 997.476 25.8115C999.258 25.8115 1000.29 26.793 1000.42 28.8336H994.377Z" fill="black"/>
<path d="M1005.84 37.0477H1009.56V17.417H1005.84V37.0477Z" fill="black"/>
<path d="M1016.7 37.3312C1018.92 37.3312 1020.29 36.298 1020.99 34.9291V37.0471H1024.71V23.5381H1020.99V31.4679C1020.99 33.4568 1019.75 34.4383 1018.17 34.4383C1016.57 34.4383 1015.82 33.5601 1015.82 31.7262V23.5381H1012.1V32.2428C1012.1 35.7814 1014.06 37.3312 1016.7 37.3312Z" fill="black"/>
<path d="M1027.24 37.0475H1030.99V29.0661C1030.99 27.2322 1032.15 26.3022 1033.6 26.3022C1034.92 26.3022 1035.72 27.0771 1035.72 28.8078V37.0475H1039.44V29.0661C1039.44 27.2322 1040.6 26.3022 1042.05 26.3022C1043.39 26.3022 1044.16 27.0771 1044.16 28.8078V37.0475H1047.88V28.3945C1047.88 24.8041 1045.95 23.2285 1043.44 23.2285C1041.74 23.2285 1039.98 23.9517 1038.89 25.579C1038.25 23.9776 1036.91 23.2285 1035.12 23.2285C1033.11 23.2285 1031.66 24.3392 1030.99 25.6048V23.5384H1027.24V37.0475Z" fill="black"/>
<path d="M1056.53 37.3316C1060.23 37.3316 1062.55 35.7044 1062.99 32.7855H1059.45C1059.22 33.9221 1058.37 34.6712 1056.63 34.6712C1054.59 34.6712 1053.38 33.3797 1053.28 31.1325H1063.02V30.0993C1063.02 25.269 1059.92 23.2285 1056.43 23.2285C1052.5 23.2285 1049.48 25.9923 1049.48 30.2542V30.4608C1049.48 34.7745 1052.45 37.3316 1056.53 37.3316ZM1053.33 28.8336C1053.61 26.9222 1054.75 25.8115 1056.43 25.8115C1058.21 25.8115 1059.24 26.793 1059.37 28.8336H1053.33Z" fill="black"/>
<path fill-rule="evenodd" clip-rule="evenodd" d="M961.303 19.684L961.052 19.2356C960.728 18.6932 960.271 18.2425 959.725 17.9261L947.689 10.9843C947.143 10.6682 946.525 10.5011 945.895 10.5H945.375C944.745 10.5011 944.126 10.6682 943.581 10.9843L931.545 17.9441C931.001 18.2584 930.55 18.7099 930.235 19.2535L929.984 19.7019C929.668 20.2469 929.501 20.8656 929.5 21.4956V35.3972C929.501 36.0273 929.668 36.6459 929.984 37.1909L930.235 37.6394C930.558 38.1766 931.008 38.6263 931.545 38.9488L943.599 45.8905C944.141 46.2132 944.762 46.3808 945.393 46.3748H945.895C946.525 46.3737 947.143 46.2067 947.689 45.8905L959.725 38.9309C960.273 38.6236 960.727 38.1704 961.034 37.6214L961.303 37.173C961.615 36.6264 961.782 36.0087 961.787 35.3792V21.4777C961.786 20.8477 961.619 20.229 961.303 19.684ZM945.375 14.0874H945.895L956.406 20.1503L945.644 26.3566L934.881 20.1503L945.375 14.0874ZM947.437 41.8906L957.931 35.8277L958.2 35.3793V23.2536L947.437 29.4779V41.8906Z" fill="black"/>
<path d="M1199.8 24.9536C1199.8 22.9064 1197.82 20.7347 1194.38 20.7347C1190.51 20.7347 1186.27 23.5652 1185.61 29.2212C1184.95 34.9395 1188.51 37.4663 1192.09 37.4663C1195.66 37.4663 1197.55 36.0729 1199.46 34.2051C1197.81 32.1261 1195.68 33.0936 1195.28 33.2962C1194.83 33.5194 1194.25 33.8281 1193.06 33.8281C1191.67 33.8281 1190.27 33.201 1190.27 30.6279C1199.13 29.7788 1199.8 27.002 1199.8 24.9536ZM1195.41 25.2964C1195.36 25.9271 1195.1 27.0191 1190.61 27.6194C1191.56 24.2618 1193.36 24.0129 1194.2 24.0129C1194.98 24.0129 1195.47 24.618 1195.41 25.2964ZM1180.41 25.8417C1180.41 25.8417 1178.5 31.8175 1178.35 32.3189C1178.3 31.8175 1176.91 21.0836 1176.91 21.0836C1173.66 21.0836 1171.93 23.3895 1171.01 25.8393C1171.01 25.8393 1168.69 31.8321 1168.5 32.3336C1168.49 31.8638 1168.15 25.9016 1168.15 25.9016C1167.95 22.9051 1165.22 21.0909 1163 21.0909L1165.67 37.3528C1169.07 37.3418 1170.89 35.0396 1171.86 32.5947C1171.86 32.5947 1173.89 27.307 1173.98 27.0667C1174 27.2961 1175.44 37.3528 1175.44 37.3528C1178.85 37.3528 1180.69 35.197 1181.68 32.8399L1186.46 21.0909C1183.09 21.0909 1181.32 23.3907 1180.41 25.8417ZM1212.32 20.7127C1210.22 20.7127 1208.61 21.851 1207.25 23.5334L1207.25 23.5212L1208.46 13.75C1205.67 13.75 1203.39 16.1779 1202.96 19.7794L1200.84 37.2259C1202.45 37.2259 1204.15 36.7586 1205.07 35.5764C1205.9 36.6341 1207.12 37.4772 1208.93 37.4772C1213.63 37.4772 1216.87 32.0103 1216.87 26.8776C1216.87 22.1939 1214.59 20.7127 1212.32 20.7127ZM1211.89 29.0944C1211.4 31.9639 1209.8 33.8988 1208.26 33.8988C1206.7 33.8988 1206.05 33.2108 1206.05 33.2108C1206.34 30.7024 1206.53 29.1639 1207.1 27.839C1207.66 26.514 1209 24.3997 1210.4 24.3997C1211.76 24.3997 1212.37 26.2261 1211.89 29.0944ZM1228.66 21.0922H1225.36L1225.38 20.9201C1225.6 18.7704 1226.12 17.6419 1227.79 17.4687C1228.92 17.3516 1229.44 16.7598 1229.56 16.1205C1229.65 15.6191 1229.97 13.8464 1229.97 13.8464C1223.37 13.8086 1221.3 16.6598 1220.77 20.9934L1220.76 21.0909L1220.69 21.0934C1219.62 21.0934 1218.44 22.3074 1218.23 23.8494L1218.16 24.4167H1220.36L1218.52 39.6782L1217.96 42.4208L1218.18 42.4281C1221.27 42.311 1223.25 39.8795 1223.69 36.3389L1225.13 24.4167H1226.16C1227.17 24.4167 1228.36 23.4042 1228.58 21.7119L1228.66 21.0922ZM1245.75 20.8092C1241.95 20.8092 1238.38 23.6018 1237.28 27.9951C1236.18 32.3873 1237.85 37.5736 1243.42 37.5736C1249 37.5736 1252.21 32.1676 1252.21 27.6792C1252.21 23.1882 1249.17 20.8092 1245.75 20.8092ZM1247.28 28.9638C1247.09 30.9561 1246.21 33.966 1243.81 33.966C1241.4 33.966 1241.74 30.434 1241.97 28.7576C1242.22 26.9605 1243.23 24.4167 1245.38 24.4167C1247.32 24.4167 1247.51 26.714 1247.28 28.9638ZM1270.94 25.8417C1270.94 25.8417 1269.04 31.8175 1268.89 32.3189C1268.84 31.8175 1267.44 21.0836 1267.44 21.0836C1264.2 21.0836 1262.46 23.3895 1261.55 25.8393C1261.55 25.8393 1259.23 31.8321 1259.04 32.3336C1259.03 31.8638 1258.69 25.9016 1258.69 25.9016C1258.49 22.9051 1255.75 21.0909 1253.54 21.0909L1256.2 37.3528C1259.61 37.3418 1261.43 35.0396 1262.39 32.5947C1262.39 32.5947 1264.43 27.307 1264.52 27.0667C1264.54 27.2961 1265.98 37.3528 1265.98 37.3528C1269.39 37.3528 1271.23 35.197 1272.22 32.8399L1277 21.0909C1273.63 21.0909 1271.86 23.3907 1270.94 25.8417ZM1231.76 13.8464L1228.99 36.1437L1228.98 36.1401L1228.42 38.8974L1228.65 38.9046C1231.63 38.868 1233.74 36.256 1234.14 32.9618L1235.73 20.1637C1236.22 16.2657 1233.89 13.8464 1231.76 13.8464Z" fill="black"/>
</svg>
