<svg width="24" height="24" viewBox="0 0 24 24" fill="none" xmlns="http://www.w3.org/2000/svg">
<path fill-rule="evenodd" clip-rule="evenodd" d="M4.49963 3.24264C3.67119 3.24264 2.99962 3.91421 2.99962 4.74265V19.7428C2.99962 20.5712 3.67119 21.2428 4.49963 21.2428H19.4998C20.3282 21.2428 20.9998 20.5712 20.9998 19.7428V4.74265C20.9998 3.91421 20.3282 3.24264 19.4998 3.24264H4.49963ZM8.52042 7.24539C8.52606 8.20165 7.81027 8.79088 6.96088 8.78666C6.16072 8.78244 5.46321 8.1454 5.46743 7.2468C5.47165 6.40164 6.13963 5.72241 7.00729 5.7421C7.88761 5.76179 8.52606 6.40727 8.52042 7.24539ZM12.2794 10.0045H9.75939H9.75798V18.5644H12.4214V18.3647C12.4214 17.9848 12.4211 17.6048 12.4208 17.2247C12.42 16.2108 12.4191 15.1959 12.4243 14.1824C12.4257 13.9363 12.4369 13.6804 12.5002 13.4455C12.7378 12.568 13.5268 12.0013 14.4071 12.1406C14.9724 12.2291 15.3464 12.5568 15.5039 13.0898C15.601 13.423 15.6446 13.7816 15.6488 14.129C15.6602 15.1766 15.6586 16.2242 15.657 17.272C15.6564 17.6418 15.6558 18.0118 15.6558 18.3816V18.563H18.3277V18.3577C18.3277 17.9057 18.3275 17.4538 18.3272 17.0019C18.3267 15.8723 18.3261 14.7428 18.3291 13.6129C18.3305 13.1024 18.2757 12.599 18.1505 12.1054C17.9635 11.3713 17.5768 10.7638 16.9482 10.3251C16.5024 10.0129 16.013 9.81179 15.466 9.78929C15.4037 9.7867 15.3409 9.78331 15.2778 9.7799C14.9981 9.76478 14.7138 9.74942 14.4464 9.80335C13.6814 9.95664 13.0093 10.3068 12.5016 10.9241C12.4426 10.9949 12.3849 11.0668 12.2988 11.1741L12.2794 11.1984V10.0045ZM5.68128 18.5672H8.33208V10.01H5.68128V18.5672Z" fill="black"/>
</svg>
