<svg width="112" height="19" viewBox="0 0 112 19" fill="none" xmlns="http://www.w3.org/2000/svg">
<g clip-path="url(#clip0_0_15)">
<path d="M8.7581 0.591229C9.08999 -0.197077 10.2204 -0.197076 10.5523 0.591231L12.5111 5.24396C12.6511 5.57629 12.9674 5.80336 13.3306 5.83212L18.415 6.23481C19.2765 6.30304 19.6258 7.3651 18.9694 7.92053L15.0957 11.1987C14.819 11.4329 14.6981 11.8004 14.7826 12.1504L15.9661 17.052C16.1666 17.8825 15.2522 18.5389 14.5146 18.0939L10.1616 15.4672C9.8507 15.2795 9.45967 15.2795 9.14875 15.4672L4.79572 18.0939C4.05818 18.5389 3.14368 17.8825 3.3442 17.052L4.52772 12.1504C4.61226 11.8004 4.49142 11.4329 4.21473 11.1987L0.340888 7.92053C-0.315452 7.3651 0.0338587 6.30304 0.895317 6.23481L5.9798 5.83212C6.34297 5.80336 6.65933 5.57629 6.79924 5.24396L8.7581 0.591229Z" fill="black"/>
<path d="M31.9303 0.591229C32.2622 -0.197077 33.3926 -0.197076 33.7245 0.591231L35.6833 5.24396C35.8233 5.57629 36.1397 5.80336 36.5028 5.83212L41.5873 6.23481C42.4487 6.30304 42.798 7.3651 42.1417 7.92053L38.2679 11.1987C37.9912 11.4329 37.8703 11.8004 37.9549 12.1504L39.1384 17.052C39.3389 17.8825 38.4244 18.5389 37.6869 18.0939L33.3339 15.4672C33.0229 15.2795 32.6319 15.2795 32.321 15.4672L27.968 18.0939C27.2304 18.5389 26.3159 17.8825 26.5164 17.052L27.7 12.1504C27.7845 11.8004 27.6637 11.4329 27.387 11.1987L23.5131 7.92053C22.8568 7.3651 23.2061 6.30304 24.0676 6.23481L29.152 5.83212C29.5152 5.80336 29.8316 5.57629 29.9715 5.24396L31.9303 0.591229Z" fill="black"/>
<path d="M55.1031 0.591229C55.435 -0.197077 56.5654 -0.197076 56.8972 0.591231L58.8561 5.24396C58.9961 5.57629 59.3124 5.80336 59.6756 5.83212L64.76 6.23481C65.6214 6.30304 65.9707 7.3651 65.3144 7.92053L61.4406 11.1987C61.164 11.4329 61.0431 11.8004 61.1276 12.1504L62.3111 17.052C62.5116 17.8825 61.5972 18.5389 60.8596 18.0939L56.5066 15.4672C56.1957 15.2795 55.8046 15.2795 55.4937 15.4672L51.1407 18.0939C50.4032 18.5389 49.4887 17.8825 49.6892 17.052L50.8727 12.1504C50.9572 11.8004 50.8364 11.4329 50.5597 11.1987L46.6859 7.92053C46.0295 7.3651 46.3788 6.30304 47.2403 6.23481L52.3248 5.83212C52.688 5.80336 53.0043 5.57629 53.1442 5.24396L55.1031 0.591229Z" fill="black"/>
<path d="M78.2753 0.591229C78.6072 -0.197077 79.7376 -0.197076 80.0695 0.591231L82.0283 5.24396C82.1683 5.57629 82.4847 5.80336 82.8478 5.83212L87.9322 6.23481C88.7937 6.30304 89.143 7.3651 88.4867 7.92053L84.6129 11.1987C84.3362 11.4329 84.2153 11.8004 84.2998 12.1504L85.4834 17.052C85.6839 17.8825 84.7694 18.5389 84.0319 18.0939L79.6789 15.4672C79.3679 15.2795 78.9769 15.2795 78.666 15.4672L74.3129 18.0939C73.5754 18.5389 72.6609 17.8825 72.8614 17.052L74.0449 12.1504C74.1295 11.8004 74.0086 11.4329 73.732 11.1987L69.8581 7.92053C69.2018 7.3651 69.5511 6.30304 70.4125 6.23481L75.497 5.83212C75.8602 5.80336 76.1766 5.57629 76.3165 5.24396L78.2753 0.591229Z" fill="black"/>
<path d="M101.448 0.591229C101.779 -0.197077 102.91 -0.197076 103.242 0.591231L105.201 5.24396C105.341 5.57629 105.657 5.80336 106.02 5.83212L111.104 6.23481C111.966 6.30304 112.315 7.3651 111.659 7.92053L107.785 11.1987C107.508 11.4329 107.388 11.8004 107.472 12.1504L108.656 17.052C108.856 17.8825 107.942 18.5389 107.204 18.0939L102.851 15.4672C102.54 15.2795 102.149 15.2795 101.838 15.4672L97.4852 18.0939C96.7477 18.5389 95.8332 17.8825 96.0337 17.052L97.2172 12.1504C97.3017 11.8004 97.1809 11.4329 96.9042 11.1987L93.0304 7.92053C92.374 7.3651 92.7233 6.30304 93.5848 6.23481L98.6693 5.83212C99.0324 5.80336 99.3488 5.57629 99.4887 5.24396L101.448 0.591229Z" fill="black"/>
</g>
<defs>
<clipPath id="clip0_0_15">
<rect width="111.408" height="18.1412" fill="white" transform="scale(1.00531)"/>
</clipPath>
</defs>
</svg>
